# xmcd
#
# Track frame offsets: 
#        150
#        13054
#        36526
#        51397
#        70041
#        91122
#        114060
#        134949
#        144041
#        165564
#        182358
#        199765
#        217788
#        236941
#        255051
#
# Disc length: 3633 seconds
#
# Revision: 6
# Processed by: cddbd v1.5.2PL0 Copyright (c) Steve Scherf et al.
# Submitted via: ExactAudioCopyFreeDBPlugin 1.0
#
DISCID=c60e2f0f
DTITLE=Lil Wayne - Tha Carter IV
DYEAR=2011
DGENRE=Hip-Hop
TTITLE0=Intro
TTITLE1=Blunt Blowin
TTITLE2=Megaman
TTITLE3=6 Foot 7 Foot (feat. Cory Gunz)
TTITLE4=Nightmares Of The Bottom
TTITLE5=She Will (feat. Drake)
TTITLE6=How To Hate (feat. T-Pain)
TTITLE7=Interlude (feat. Tech N9ne)
TTITLE8=John (feat. Rick Ross)
TTITLE9=Abortion
TTITLE10=So Special (feat. John Legend)
TTITLE11=How To Love
TTITLE12=President Carter
TTITLE13=It's Good (feat. Jadakiss, Drake)
TTITLE14=Outro (feat.Bun B, Nas, Shyne, Busta Rhymes)
EXTD=YEAR: 2011
EXTT0=
EXTT1=
EXTT2=
EXTT3=
EXTT4=
EXTT5=
EXTT6=
EXTT7=
EXTT8=
EXTT9=
EXTT10=
EXTT11=
EXTT12=
EXTT13=
EXTT14=
PLAYORDER=
